Coordinates
version=1
nRows=15
nColumns=34
inDegrees=yes

Units are S.I. units (second, meters, Newtons, ...)
If the header above contains a line with 'inDegrees', this indicates whether rotational values are in degrees (yes) or radians (no).

endheader
time	pelvis_tilt	pelvis_list	pelvis_rotation	pelvis_tx	pelvis_ty	pelvis_tz	hip_flexion_r	hip_adduction_r	hip_rotation_r	knee_angle_r	ankle_angle_r	subtalar_angle_r	mtp_angle_r	hip_flexion_l	hip_adduction_l	hip_rotation_l	knee_angle_l	ankle_angle_l	subtalar_angle_l	mtp_angle_l	lumbar_extension	lumbar_bending	lumbar_rotation	arm_flex_r	arm_add_r	arm_rot_r	elbow_flex_r	pro_sup_r	arm_flex_l	arm_add_l	arm_rot_l	elbow_flex_l	pro_sup_l
     11.38333330	      0.31301169	     -0.13592780	      3.19960685	     -2.20316046	      1.17207116	     -0.18821414	      1.19757525	     -4.51594505	      3.71090116	      5.04563352	      9.34072561	      0.83480842	      0.00000000	     -0.19198071	     -2.90871985	    -15.68491889	      0.00000000	     -0.22466840	      4.27571579	      0.00000000	     -2.71421812	      0.17637940	     -1.11740032	     -0.60281693	     -6.57618981	    -11.05714948	     20.49703010	     75.75771163	      1.53652170	     -6.43492085	     -5.52122830	     22.43923049	     88.16440301
     11.40000000	      0.41240250	     -0.10363841	      3.23958188	     -2.20434301	      1.17107079	     -0.18744917	      1.17354451	     -4.50673614	      3.61987033	      5.23167444	      9.42761035	      0.70325455	      0.00000000	     -0.27266531	     -2.90195701	    -15.70903294	      0.00000000	     -0.21194839	      4.27484631	      0.00000000	     -2.75446321	      0.24064701	     -1.02256173	     -0.81344042	     -6.61717693	    -11.07370069	     20.42608548	     75.74424461	      1.19820058	     -6.39290530	     -5.56297576	     22.31507150	     88.08872155
     11.41666670	      0.53572288	     -0.09485393	      3.24533371	     -2.20519576	      1.17136674	     -0.18699560	      1.14732006	     -4.46344927	      3.59395021	      5.53042312	      9.61511659	      0.55898236	      0.00000000	     -0.40703749	     -2.92698360	    -15.71959857	      0.00000000	     -0.22772761	      4.29336822	      0.00000000	     -2.72839591	      0.28745507	     -0.97274447	     -1.00329926	     -6.65591354	    -11.08945647	     20.38359586	     75.72849366	      0.86691464	     -6.36459149	     -5.62144713	     22.17089101	     87.99999555
     11.43333330	      0.47102396	     -0.09458105	      3.19449531	     -2.20578667	      1.17198808	     -0.18658899	      1.38497003	     -4.38377772	      4.14595713	      5.96694426	      9.78319417	     -0.47019125	      0.00000000	     -0.34329104	     -2.96415465	    -16.01071841	      0.00000000	     -0.01906730	      4.82359393	      0.00000000	     -2.49224227	      0.35358722	     -0.82348476	     -1.27831073	     -6.70198541	    -11.17494614	     20.68403747	     75.02434359	      0.98016491	     -5.75540487	     -8.61399036	     21.01947551	     83.20961344
     11.45000000	      0.55568210	     -0.05374911	      3.17863029	     -2.20646720	      1.17302664	     -0.18616917	      1.32054720	     -4.38118134	      4.18176823	      6.08835354	      9.92184338	     -0.45834963	      0.00000000	     -0.41126268	     -2.96813618	    -15.95546734	      0.00000000	     -0.09960245	      4.83858520	      0.00000000	     -2.47520545	      0.35210693	     -0.77828787	     -1.38329746	     -6.67234998	    -11.17026721	     20.65879606	     75.01533631	      0.66003223	     -5.80991492	     -8.60639292	     20.92747090	     83.16232630
     11.46666670	      0.60159351	     -0.02263554	      3.26487818	     -2.20737528	      1.17260347	     -0.18590286	      1.29731799	     -4.38148338	      4.21170806	      6.13522269	      9.96673476	     -0.45161842	      0.00000000	     -0.38055175	     -2.96483574	    -15.94894039	      0.00000000	     -0.11080534	      4.83873882	      0.00000000	     -2.47746852	      0.35104828	     -0.73884780	     -1.39050324	     -6.66817922	    -11.16772028	     20.65853162	     75.01307766	      0.55298134	     -5.81929234	     -8.60635994	     20.89250616	     83.14850204
     11.48333330	      0.66315094	      0.04172168	      3.28151343	     -2.20817994	      1.17242955	     -0.18554803	      1.30555081	     -4.41844621	      4.23999315	      6.19549160	     10.15453647	     -0.48165869	      0.00000000	     -0.38189905	     -2.92818682	    -15.86325607	      0.00000000	     -0.16449864	      4.86720910	      0.00000000	     -2.50641781	      0.30824622	     -0.72782132	     -1.49231966	     -6.64278207	    -11.15700771	     20.63651121	     75.00419755	      0.27725805	     -5.84937327	     -8.61084191	     20.78359441	     83.09663942
     11.50000000	      0.71394773	      0.06788975	      3.37971350	     -2.20895017	      1.17181089	     -0.18551897	      1.30300433	     -4.42547161	      4.26510950	      6.20481266	     10.17155634	     -0.47139663	      0.00000000	     -0.33184060	     -2.91652080	    -15.86725190	      0.00000000	     -0.16731847	      4.86145254	      0.00000000	     -2.50135734	      0.30156426	     -0.69016409	     -1.46231693	     -6.63354052	    -11.15234204	     20.64810956	     75.00309766	      0.22574323	     -5.85770184	     -8.61371847	     20.76204717	     83.08608331
     11.51666670	      0.74182560	      0.09947861	      3.46586622	     -2.20952583	      1.17144918	     -0.18558883	      1.30086398	     -4.44796496	      4.27334314	      6.18967732	     10.20176544	     -0.47223539	      0.00000000	     -0.28315368	     -2.89302406	    -15.86110940	      0.00000000	     -0.17529105	      4.85904052	      0.00000000	     -2.50957546	      0.29059163	     -0.63749154	     -1.42361390	     -6.61550546	    -11.14502369	     20.66223787	     75.00190865	      0.15166254	     -5.86756544	     -8.61880648	     20.72792410	     83.07247690
     11.53333330	      0.74312178	      0.13883858	      3.53100109	     -2.21024311	      1.17151970	     -0.18563649	      1.29628878	     -4.48962970	      4.25926525	      6.12841781	     10.24626319	     -0.48283815	      0.00000000	     -0.22927241	     -2.85285275	    -15.83885103	      0.00882628	     -0.18330620	      4.86192499	      0.00000000	     -2.51698979	      0.27337855	     -0.56996619	     -1.35530582	     -6.58785139	    -11.13361516	     20.68596207	     75.00057932	      0.07250970	     -5.87891315	     -8.62714116	     20.68495752	     83.05353894
     11.55000000	      0.70973950	      0.18770356	      3.55018648	     -2.21090126	      1.17100447	     -0.18559956	      1.29917735	     -4.55348438	      4.21889627	      5.97320003	     10.30186086	     -0.49320090	      0.00000000	     -0.17191021	     -2.79216678	    -15.77796523	      0.00000000	     -0.17040446	      4.87434676	      0.00000000	     -2.50202528	      0.23881909	     -0.49983649	     -1.22356681	     -6.54969898	    -11.11420497	     20.73057644	     74.99856927	      0.02373563	     -5.89063487	     -8.64212353	     20.63630778	     83.02146878
     11.56666670	      0.66161509	      0.22527926	      3.54980766	     -2.21101296	      1.17109310	     -0.18563889	      1.29135469	     -4.61122866	      4.19516029	      5.77307947	     10.30131157	     -0.45422180	      0.00000000	     -0.11889377	     -2.74335436	    -15.68635296	      0.00002807	     -0.11031631	      4.89217148	      0.00000000	     -2.43300370	      0.20263260	     -0.45738526	     -1.05384837	     -6.51287834	    -11.08841100	     20.78737999	     74.99610397	      0.03300914	     -5.89452429	     -8.66394259	     20.59334632	     82.97766312
     11.58333330	      0.54599450	      0.16207345	      3.66916542	     -2.21045852	      1.17170055	     -0.18625269	      1.21770772	     -4.62767623	      3.44010817	      5.40394278	     10.38972667	      0.79136341	      0.00000000	     -0.00577193	     -2.77388990	    -15.26572509	      0.00000000	      0.10486341	      4.76098427	      0.00000000	     -2.05314559	      0.28346966	     -0.78412275	     -0.66055959	     -6.69477343	     -9.37870954	     19.99214399	     74.62768706	      0.29098655	     -5.53698350	    -10.47631741	     19.27066934	     79.12068788
     11.60000000	      0.48629833	      0.15968369	      3.60420838	     -2.21014919	      1.17284405	     -0.18640100	      1.18311403	     -4.65014035	      3.39881402	      5.22293191	     10.38054490	      0.76806096	      0.00000000	      0.00759189	     -2.75593749	    -15.24359629	      0.00000000	      0.12784449	      4.78229380	      0.00000000	     -1.99009945	      0.31829391	     -0.70841662	     -0.47768762	     -6.65007622	     -9.36856986	     20.06965888	     74.62335787	      0.28182282	     -5.53543424	    -10.47321281	     19.27806001	     79.10214546
     11.61666670	      0.40664481	      0.12315185	      3.50813656	     -2.20997330	      1.17364845	     -0.18651685	      1.08904980	     -4.64155130	      3.38469004	      4.91779708	     10.28784794	      0.81007751	      0.00000000	      0.02268470	     -2.76594444	    -15.22264758	      0.00000000	      0.17421419	      4.81525850	      0.00000000	     -1.86294543	      0.35929462	     -0.64499183	     -0.24742526	     -6.60858056	     -9.35560869	     20.17262544	     74.61773009	      0.28202015	     -5.49706539	    -10.46939736	     19.28775323	     79.07536726
